<svg width="40" height="40" viewBox="0 0 40 40" fill="none" xmlns="http://www.w3.org/2000/svg">
<path d="M20.866 3.5L34.7224 27.5C35.1073 28.1667 34.6262 29 33.8564 29H6.14359C5.37379 29 4.89267 28.1667 5.27757 27.5L19.134 3.5C19.5189 2.83333 20.4811 2.83333 20.866 3.5Z" stroke="#373740" stroke-width="2"/>
<path d="M19.7988 20.7C19.5988 20.7 19.4321 20.6267 19.2988 20.48C19.1654 20.3333 19.0988 20.16 19.0988 19.96V11.74C19.0988 11.5267 19.1654 11.3533 19.2988 11.22C19.4321 11.0733 19.5988 11 19.7988 11H20.1788C20.3921 11 20.5654 11.0733 20.6988 11.22C20.8321 11.3533 20.8988 11.5267 20.8988 11.74V19.96C20.8988 20.16 20.8254 20.3333 20.6788 20.48C20.5454 20.6267 20.3788 20.7 20.1788 20.7H19.7988ZM20.0188 25.2C19.6054 25.2 19.2588 25.0667 18.9788 24.8C18.7121 24.5333 18.5788 24.1933 18.5788 23.78C18.5788 23.3667 18.7121 23.0333 18.9788 22.78C19.2588 22.5133 19.6054 22.38 20.0188 22.38C20.4454 22.38 20.7921 22.5133 21.0588 22.78C21.3254 23.0333 21.4588 23.3667 21.4588 23.78C21.4588 24.1933 21.3254 24.5333 21.0588 24.8C20.7921 25.0667 20.4454 25.2 20.0188 25.2Z" fill="#373740"/>
</svg>
