<svg width="25" height="25" viewBox="0 0 25 25" fill="none" xmlns="http://www.w3.org/2000/svg">
<path d="M11.2871 13.0061V23.2899" stroke="black" stroke-width="1.71429" stroke-linecap="round" stroke-linejoin="round"/>
<path d="M7.85791 16.434L11.287 13.0061L14.716 16.434" stroke="black" stroke-width="1.71429" stroke-linecap="round" stroke-linejoin="round"/>
<path d="M20.717 14.0346C21.3538 13.6672 21.9045 13.1677 22.3319 12.5696C22.7592 11.9715 23.0534 11.2888 23.1944 10.5674C23.3355 9.84605 23.3202 9.10285 23.1497 8.38789C22.9791 7.67294 22.6572 7.00285 22.2056 6.4228C21.754 5.84275 21.1833 5.36622 20.5319 5.02534C19.8805 4.68446 19.1636 4.48715 18.4295 4.4467C17.6953 4.40626 16.9611 4.52363 16.2761 4.79089C15.5912 5.05816 14.9716 5.46911 14.459 5.99604C14.0095 4.40177 12.9978 3.02407 11.611 2.11765C10.2242 1.21122 8.55604 0.837358 6.91486 1.06517C5.27369 1.29298 3.77051 2.10706 2.6832 3.35691C1.59589 4.60677 0.997982 6.20788 1.00001 7.86427C1.00122 9.42248 1.53337 10.9338 2.50878 12.1492" stroke="black" stroke-width="1.71429" stroke-linecap="round" stroke-linejoin="round"/>
</svg>
