<svg width="37" height="43" viewBox="0 0 37 43" fill="none" xmlns="http://www.w3.org/2000/svg">
<path d="M29.2797 11.4523H2.00552C1.34773 11.4523 0.802246 10.9031 0.802246 10.2408C0.802246 9.57851 1.34773 9.0293 2.00552 9.0293H29.2797C29.9375 9.0293 30.483 9.57851 30.483 10.2408C30.483 10.9031 29.9375 11.4523 29.2797 11.4523Z" fill="white"/>
<path d="M7.49932 6.29004H10.3839M17.8839 6.29004H24.807M5.76855 16.4552H24.807" stroke="white" stroke-width="2.63491" stroke-miterlimit="10" stroke-linecap="round" stroke-linejoin="round"/>
<path fill-rule="evenodd" clip-rule="evenodd" d="M31.2851 20.5402V9.28816C31.2851 3.3922 27.9159 0 22.06 0H9.22509C3.36917 0 0 3.3922 0 9.28816V23.0185C0 28.9144 3.36917 32.3066 9.22509 32.3066H19.2279C18.8931 31.5484 18.6594 30.735 18.5439 29.8836H9.22509C4.63661 29.8836 2.40655 27.6383 2.40655 23.0185V9.28816C2.40655 4.66831 4.63661 2.423 9.22509 2.423H22.06C26.6485 2.423 28.8786 4.66831 28.8786 9.28816V19.772C29.7271 19.9138 30.5352 20.1759 31.2851 20.5402Z" fill="white"/>
<path fill-rule="evenodd" clip-rule="evenodd" d="M21.7653 21.2363H5.77009C5.04248 21.2363 4.45264 21.8262 4.45264 22.5538C4.45264 23.2814 5.04248 23.8712 5.77009 23.8712H19.4695C20.0646 22.8554 20.8454 21.9616 21.7653 21.2363Z" fill="white"/>
<path d="M30.4182 35.3636L35.0032 42.4255C35.137 42.6317 35.372 42.6798 35.5531 42.6706C35.7437 42.6609 35.9471 42.5891 36.1275 42.4703C36.3079 42.3516 36.4549 42.1929 36.5402 42.0209C36.6212 41.8576 36.6717 41.6216 36.5378 41.4154L31.9528 34.3536C31.819 34.1474 31.584 34.0992 31.4029 34.1084C31.2123 34.1181 31.0089 34.1899 30.8285 34.3087C30.6481 34.4274 30.5012 34.5861 30.4158 34.7581C30.3348 34.9214 30.2843 35.1574 30.4182 35.3636Z" fill="white" stroke="white" stroke-width="0.568376"/>
<path d="M21.0625 29.003C21.0625 33.0268 24.2472 36.3165 28.1765 36.3165C32.1058 36.3165 35.2905 33.0268 35.2905 29.003C35.2905 24.9791 32.1058 21.6894 28.1765 21.6894C24.2472 21.6894 21.0625 24.9791 21.0625 29.003ZM22.6304 29.003C22.6304 25.8464 25.123 23.2865 28.1765 23.2865C31.23 23.2865 33.7226 25.8464 33.7226 29.003C33.7226 32.1595 31.23 34.7194 28.1765 34.7194C25.123 34.7194 22.6304 32.1595 22.6304 29.003Z" fill="white" stroke="white" stroke-width="0.568376"/>
</svg>
