<svg width="21" height="20" viewBox="0 0 21 20" fill="none" xmlns="http://www.w3.org/2000/svg">
<path d="M19.5761 2.42452C19.6936 2.54167 19.7596 2.70034 19.7596 2.86577C19.7596 3.03119 19.6936 3.18986 19.5761 3.30701L18.264 4.61202L15.7481 2.11202L17.0602 0.807015C17.1781 0.689846 17.3381 0.624023 17.5048 0.624023C17.6716 0.624023 17.8316 0.689846 17.9495 0.807015L19.5761 2.42326V2.42452ZM17.3746 5.49451L14.8587 2.99451L6.28828 11.512C6.21905 11.5808 6.16693 11.6647 6.13607 11.757L5.12342 14.7745C5.10505 14.8295 5.10245 14.8885 5.11589 14.9449C5.12933 15.0013 5.15829 15.0529 5.19953 15.0939C5.24078 15.1349 5.29268 15.1636 5.34944 15.177C5.40619 15.1904 5.46557 15.1878 5.52093 15.1695L8.55764 14.1633C8.65043 14.133 8.73484 14.0816 8.8042 14.0133L17.3746 5.49451Z" fill="#636363"/>
<path fill-rule="evenodd" clip-rule="evenodd" d="M1.33301 16.875C1.33301 17.3723 1.53181 17.8492 1.88568 18.2008C2.23955 18.5525 2.7195 18.75 3.21994 18.75H17.0575C17.5579 18.75 18.0378 18.5525 18.3917 18.2008C18.7456 17.8492 18.9444 17.3723 18.9444 16.875V9.375C18.9444 9.20924 18.8781 9.05027 18.7602 8.93306C18.6422 8.81585 18.4822 8.75 18.3154 8.75C18.1486 8.75 17.9886 8.81585 17.8707 8.93306C17.7527 9.05027 17.6864 9.20924 17.6864 9.375V16.875C17.6864 17.0408 17.6202 17.1997 17.5022 17.3169C17.3842 17.4342 17.2243 17.5 17.0575 17.5H3.21994C3.05313 17.5 2.89314 17.4342 2.77519 17.3169C2.65723 17.1997 2.59096 17.0408 2.59096 16.875V3.125C2.59096 2.95924 2.65723 2.80027 2.77519 2.68306C2.89314 2.56585 3.05313 2.5 3.21994 2.5H11.3967C11.5635 2.5 11.7234 2.43415 11.8414 2.31694C11.9594 2.19973 12.0256 2.04076 12.0256 1.875C12.0256 1.70924 11.9594 1.55027 11.8414 1.43306C11.7234 1.31585 11.5635 1.25 11.3967 1.25H3.21994C2.7195 1.25 2.23955 1.44754 1.88568 1.79917C1.53181 2.15081 1.33301 2.62772 1.33301 3.125V16.875Z" fill="#636363"/>
</svg>
