<svg width="68" height="81" viewBox="0 0 68 81" fill="none" xmlns="http://www.w3.org/2000/svg">
<path d="M32.9234 23.2669C32.6494 22.8159 31.8787 22.1143 29.9606 22.4484C28.8988 22.6322 27.8198 22.7157 26.7409 22.6656C22.7505 22.4985 19.1368 20.7113 16.6193 17.9552C14.3929 15.5332 13.0228 12.3762 13.0057 8.96871C13.0057 7.06452 13.3824 5.22714 14.1531 3.48999C14.9067 1.80294 14.3758 0.91766 13.999 0.550185C13.6051 0.166006 12.6803 -0.368504 10.8649 0.366447C3.86032 3.23944 -0.472607 10.0878 0.0411785 17.4207C0.554964 24.3192 5.52156 30.2155 12.098 32.4371C13.6736 32.9716 15.3348 33.2889 17.0474 33.3558C17.3215 33.3725 17.5955 33.3892 17.8695 33.3892C23.6068 33.3892 28.9844 30.75 32.3754 26.2568C33.5228 24.7034 33.2146 23.7179 32.9234 23.2669Z" fill="white"/>
<path d="M46.7508 71.6373C53.6613 71.6373 59.2633 66.0354 59.2633 59.1248C59.2633 52.2143 53.6613 46.6123 46.7508 46.6123C39.8403 46.6123 34.2383 52.2143 34.2383 59.1248C34.2383 66.0354 39.8403 71.6373 46.7508 71.6373Z" fill="white" stroke="white" stroke-width="2.48045" stroke-linecap="round" stroke-linejoin="round"/>
<path d="M60.4945 72.8695L60.2442 72.6192Z" fill="white"/>
<path d="M60.4945 72.8695L60.2442 72.6192M60.2442 45.6307L60.4945 45.3805M33.0055 72.8695L33.2557 72.6192M46.75 40.029V39.875M46.75 78.375V78.221M27.654 59.125H27.5M66 59.125H65.846M33.2557 45.6307L33.0055 45.3805" stroke="white" stroke-width="3.30727" stroke-linecap="round" stroke-linejoin="round"/>
<path d="M0.916016 66.3496L53.1987 13.7506Z" fill="white"/>
<path d="M0.916016 66.3496L53.1987 13.7506" stroke="white" stroke-width="1.5" stroke-linecap="round" stroke-linejoin="round"/>
</svg>
