<svg width="25" height="25" viewBox="0 0 25 25" fill="none" xmlns="http://www.w3.org/2000/svg">
<path d="M23.2859 13.8569L16.2231 23.2855L11.5088 19.7541" stroke="white" stroke-width="1.71429" stroke-linecap="round" stroke-linejoin="round"/>
<path d="M8.71408 8.71429C10.8443 8.71429 12.5712 6.98738 12.5712 4.85714C12.5712 2.7269 10.8443 1 8.71408 1C6.58384 1 4.85693 2.7269 4.85693 4.85714C4.85693 6.98738 6.58384 8.71429 8.71408 8.71429Z" stroke="white" stroke-width="1.71429" stroke-linecap="round" stroke-linejoin="round"/>
<path d="M5.28571 21.5714H1V19C1.00134 17.4752 1.4545 15.9851 2.30225 14.7177C3.15 13.4503 4.35431 12.4626 5.76307 11.8793C7.17184 11.296 8.72187 11.1432 10.2174 11.4403C11.7129 11.7374 13.0869 12.4711 14.1657 13.5486" stroke="white" stroke-width="1.71429" stroke-linecap="round" stroke-linejoin="round"/>
</svg>
