<?xml version="1.0" encoding="utf-8"?>
<svg viewBox="653.491 288.851 21 18" xmlns="http://www.w3.org/2000/svg">
  <path d="M 13 3 C 8.03 3 4 7.03 4 12 L 1 12 L 4.89 15.89 L 4.96 16.03 L 9 12 L 6 12 C 6 8.13 9.13 5 13 5 C 16.87 5 20 8.13 20 12 C 20 15.87 16.87 19 13 19 C 11.07 19 8.296 17.11 8.06 16.94 C 7.689 16.64 6.227 17.347 6.64 18.36 C 8.27 19.99 10.51 21 13 21 C 17.97 21 22 16.97 22 12 C 22 7.03 17.97 3 13 3 Z M 12 8 C 11.917 8.461 11.823 12.724 12 13 C 12.301 13.47 15.68 15.272 16.25 15.52 C 16.522 15.638 17.096 14.534 17.02 14.24 C 16.96 14.007 13.562 12.222 13.562 12.187 C 13.562 12.187 13.524 8.397 13.52 8 C 13.515 7.499 12.088 7.507 12 8 Z" transform="matrix(1, 0, 0, 1, 652.490864, 285.851113)"/>
</svg>