<svg width="40" height="39" viewBox="0 0 40 39" fill="none" xmlns="http://www.w3.org/2000/svg">
<path d="M25.6234 19.5005C25.6234 16.4229 23.1883 13.9385 20.1718 13.9385C17.1553 13.9385 14.7202 16.4229 14.7202 19.5005C14.7202 22.5782 17.1553 25.0626 20.1718 25.0626C20.9168 25.0626 21.6437 24.9142 22.2979 24.6176" stroke="white" stroke-width="2.03988" stroke-miterlimit="10" stroke-linecap="round" stroke-linejoin="round"/>
<path d="M10.8696 35.4075L12.8504 36.5756C14.2859 37.447 16.1395 36.9278 16.9936 35.4632L17.1935 35.1109C18.829 32.2001 21.5184 32.2001 23.1721 35.1109L23.372 35.4632C24.2261 36.9278 26.0796 37.447 27.5152 36.5756L30.6589 34.7401C32.3126 33.776 32.8759 31.6068 31.9309 29.9382C30.2773 27.0274 31.622 24.6543 34.9111 24.6543C36.801 24.6543 38.3638 23.0784 38.3638 21.1316V17.8686C38.3638 15.9404 36.8192 14.3459 34.9111 14.3459C33.0758 14.3459 31.8401 13.6043 31.404 12.4363C31.0587 11.5278 31.2041 10.3412 31.9309 9.06197C32.8759 7.37481 32.3126 5.22416 30.6589 4.26007L29.187 3.40723" stroke="white" stroke-width="2.03988" stroke-miterlimit="10" stroke-linecap="round" stroke-linejoin="round"/>
<path d="M23.1521 3.88906C21.5166 6.79986 18.8272 6.79986 17.1735 3.88906L16.9737 3.53679C16.1377 2.07212 14.2842 1.553 12.8486 2.42439L9.70489 4.25986C8.05125 5.22395 7.48792 7.39314 8.43286 9.0803C10.0865 11.9726 8.74178 14.3457 5.45266 14.3457C3.56278 14.3457 2 15.9215 2 17.8682V21.1313C2 23.0595 3.54461 24.6539 5.45266 24.6539C8.74178 24.6539 10.0865 27.0271 8.43286 29.9379" stroke="white" stroke-width="2.03988" stroke-miterlimit="10" stroke-linecap="round" stroke-linejoin="round"/>
</svg>
