<svg width="35" height="36" viewBox="0 0 35 36" fill="none" xmlns="http://www.w3.org/2000/svg">
<path d="M12.8273 17.5268C12.7764 17.5268 12.7425 17.5268 12.6916 17.5268C12.6068 17.5099 12.488 17.5099 12.3862 17.5268C7.46633 17.3746 3.75098 13.5211 3.75098 8.77183C3.75098 3.93803 7.70385 0 12.5559 0C17.4078 0 21.3607 3.93803 21.3607 8.77183C21.3437 13.5211 17.6114 17.3746 12.8782 17.5268C12.8612 17.5268 12.8443 17.5268 12.8273 17.5268ZM12.5559 2.53521C9.11195 2.53521 6.29574 5.34085 6.29574 8.77183C6.29574 12.1521 8.9423 14.8732 12.3184 14.9915C12.4201 14.9746 12.6407 14.9746 12.8612 14.9915C16.1863 14.8394 18.7989 12.1183 18.8159 8.77183C18.8159 5.34085 15.9997 2.53521 12.5559 2.53521Z" fill="white"/>
<path d="M25.3472 17.7461C25.2963 17.7461 25.2454 17.7461 25.1945 17.7292C24.4989 17.7968 23.7864 17.3066 23.7185 16.6137C23.6507 15.9207 24.0748 15.2954 24.7704 15.2109C24.9739 15.194 25.1945 15.194 25.3811 15.194C27.858 15.0588 29.792 13.0306 29.792 10.5461C29.792 7.97707 27.7053 5.89819 25.1266 5.89819C24.4311 5.91509 23.8542 5.34045 23.8542 4.64749C23.8542 3.95453 24.4311 3.37988 25.1266 3.37988C29.0965 3.37988 32.3368 6.60805 32.3368 10.563C32.3368 14.4503 29.2831 17.594 25.3981 17.7461C25.3811 17.7461 25.3641 17.7461 25.3472 17.7461Z" fill="white"/>
<path d="M12.8426 35.9998C9.51742 35.9998 6.1753 35.1547 3.6475 33.4645C1.28935 31.9096 0 29.78 0 27.4645C0 25.149 1.28935 23.0026 3.6475 21.4307C8.73703 18.0674 16.982 18.0674 22.0376 21.4307C24.3788 22.9857 25.6851 25.1152 25.6851 27.4307C25.6851 29.7462 24.3958 31.8927 22.0376 33.4645C19.4929 35.1547 16.1677 35.9998 12.8426 35.9998ZM5.0556 23.5603C3.42695 24.642 2.54476 26.0279 2.54476 27.4814C2.54476 28.9181 3.44392 30.304 5.0556 31.3688C9.27991 34.1913 16.4052 34.1913 20.6295 31.3688C22.2582 30.2871 23.1404 28.9012 23.1404 27.4476C23.1404 26.011 22.2412 24.6251 20.6295 23.5603C16.4052 20.7547 9.27991 20.7547 5.0556 23.5603Z" fill="white"/>
<path d="M28.4007 32.9578C27.8069 32.9578 27.281 32.5522 27.1622 31.9438C27.0265 31.2508 27.4676 30.5917 28.1462 30.4395C29.215 30.2198 30.199 29.7973 30.9624 29.2057C31.9294 28.479 32.4553 27.5663 32.4553 26.6029C32.4553 25.6395 31.9294 24.7269 30.9794 24.017C30.2329 23.4424 29.2998 23.0367 28.1971 22.7832C27.5185 22.6311 27.0774 21.955 27.2301 21.2621C27.3828 20.586 28.0614 20.1466 28.7569 20.2987C30.2159 20.6198 31.4883 21.1945 32.5232 21.9888C34.101 23.1719 35.0001 24.8452 35.0001 26.6029C35.0001 28.3607 34.084 30.0339 32.5062 31.2339C31.4544 32.0452 30.1311 32.6367 28.6721 32.924C28.5703 32.9578 28.4855 32.9578 28.4007 32.9578Z" fill="white"/>
</svg>
