<?xml version="1.0" encoding="utf-8"?>
<svg viewBox="544.347 242.324 15.645 15.644" xmlns="http://www.w3.org/2000/svg">
  <path d="M 552.169 242.324 C 552.709 242.324 553.147 242.762 553.147 243.302 L 553.147 249.168 L 559.012 249.168 C 559.765 249.168 560.236 249.983 559.858 250.635 C 559.685 250.936 559.361 251.123 559.012 251.123 L 553.147 251.123 L 553.147 256.989 C 553.147 257.742 552.332 258.213 551.68 257.835 C 551.378 257.661 551.191 257.338 551.191 256.989 L 551.191 251.123 L 545.325 251.123 C 544.573 251.123 544.103 250.309 544.479 249.657 C 544.654 249.354 544.976 249.168 545.325 249.168 L 551.191 249.168 L 551.191 243.302 C 551.191 242.762 551.629 242.324 552.169 242.324 Z" style="fill: rgb(0, 182, 116);"/>
</svg>