<svg width="27" height="29" viewBox="0 0 27 29" fill="none" xmlns="http://www.w3.org/2000/svg">
<path d="M24.7308 25.5633L2.28846 16.5537C1.92228 16.4067 1.60328 16.1356 1.37334 15.7761C1.1434 15.4166 1.01326 14.9855 1 14.5393V12.1264C1.00158 11.6688 1.12633 11.223 1.35706 10.8504C1.5878 10.4778 1.91319 10.1966 2.28846 10.0456L24.7308 1.05821C24.8749 1.00219 25.0284 0.986301 25.1789 1.01186C25.3293 1.03742 25.4724 1.1037 25.5962 1.20524C25.7201 1.30679 25.8213 1.44071 25.8915 1.59601C25.9617 1.75132 25.9989 1.92357 26 2.09862V24.5228C25.9989 24.6979 25.9617 24.8701 25.8915 25.0254C25.8213 25.1807 25.7201 25.3147 25.5962 25.4162C25.4724 25.5178 25.3293 25.584 25.1789 25.6096C25.0284 25.6352 24.8749 25.6193 24.7308 25.5633Z" stroke="black" stroke-width="1.71429" stroke-linecap="round" stroke-linejoin="round"/>
<path d="M16.3461 22.2427C16.1842 23.7804 15.5192 25.1892 14.4865 26.1822C13.4538 27.1752 12.1311 27.6777 10.7877 27.5874C9.44443 27.4971 8.18153 26.8208 7.25626 25.6962C6.33099 24.5716 5.81294 23.0832 5.80762 21.5343V18.0146" stroke="black" stroke-width="1.71429" stroke-linecap="round" stroke-linejoin="round"/>
</svg>
