<svg width="40" height="28" viewBox="0 0 40 28" fill="none" xmlns="http://www.w3.org/2000/svg">
<g opacity="0.4">
<path d="M38 11.9593C38 11.9593 32 4.13184 20 4.13184C8 4.13184 2 11.9593 2 11.9593" stroke="#3CC1FE" stroke-width="3" stroke-linecap="round"/>
<path d="M27.326 13.5248C27.326 17.5717 24.0459 20.8523 19.9999 20.8523C15.9539 20.8523 12.6738 17.5717 12.6738 13.5248C12.6738 9.47781 15.9539 6.19727 19.9999 6.19727C24.0459 6.19727 27.326 9.47781 27.326 13.5248Z" fill="#3CC1FE" stroke="#3CC1FE"/>
<path d="M27.0434 9.61101C27.0434 11.7725 25.2914 13.5248 23.1303 13.5248C20.9692 13.5248 19.2173 11.7725 19.2173 9.61101C19.2173 7.44951 20.9692 5.69727 23.1303 5.69727C25.2914 5.69727 27.0434 7.44951 27.0434 9.61101Z" fill="white"/>
<path d="M31.3574 24.8116L8.11492 1.56497C7.51009 0.960025 6.52946 0.960025 5.92463 1.56497C5.31979 2.16991 5.31979 3.15071 5.92463 3.75566L29.1671 27.0023C29.7719 27.6072 30.7525 27.6072 31.3574 27.0023C31.9622 26.3973 31.9622 25.4165 31.3574 24.8116Z" fill="#3CC1FE" stroke="#3CC1FE" stroke-width="0.75"/>
</g>
</svg>
