<svg width="44" height="31" viewBox="0 0 44 31" fill="none" xmlns="http://www.w3.org/2000/svg">
<g opacity="0.4">
<path d="M42 13.1767C42 13.1767 35.3333 4.47949 22 4.47949C8.66667 4.47949 2 13.1767 2 13.1767" stroke="#9DE0FF" stroke-width="3" stroke-linecap="round"/>
<path d="M30.196 14.916C30.196 19.4433 26.5266 23.1132 22.0003 23.1132C17.4741 23.1132 13.8047 19.4433 13.8047 14.916C13.8047 10.3887 17.4741 6.71875 22.0003 6.71875C26.5266 6.71875 30.196 10.3887 30.196 14.916Z" fill="#9DE0FF" stroke="#9DE0FF"/>
<path d="M29.8265 10.5674C29.8265 12.969 27.8799 14.916 25.4787 14.916C23.0774 14.916 21.1309 12.969 21.1309 10.5674C21.1309 8.16569 23.0774 6.21875 25.4787 6.21875C27.8799 6.21875 29.8265 8.16569 29.8265 10.5674Z" fill="white"/>
<path d="M34.5894 27.4868L8.76452 1.65721C8.10875 1.00132 7.04554 1.00132 6.38978 1.65721C5.73401 2.31309 5.73401 3.37649 6.38978 4.03238L32.2147 29.862C32.8705 30.5178 33.9337 30.5178 34.5895 29.862C35.2452 29.2061 35.2452 28.1427 34.5894 27.4868Z" fill="#9DE0FF" stroke="#D9F1FF" stroke-width="0.75"/>
</g>
</svg>
