<svg width="29" height="32" viewBox="0 0 29 32" fill="none" xmlns="http://www.w3.org/2000/svg">
<path d="M27.9999 18.3076L19.443 30.9999L13.7314 26.2461" stroke="black" stroke-width="2" stroke-linecap="round" stroke-linejoin="round"/>
<path d="M10.3459 11.3846C12.9268 11.3846 15.019 9.05994 15.019 6.19231C15.019 3.32468 12.9268 1 10.3459 1C7.76506 1 5.67285 3.32468 5.67285 6.19231C5.67285 9.05994 7.76506 11.3846 10.3459 11.3846Z" stroke="black" stroke-width="2" stroke-linecap="round" stroke-linejoin="round"/>
<path d="M6.19231 28.6925H1V25.231C1.00162 23.1784 1.55065 21.1724 2.57773 19.4664C3.60481 17.7603 5.06387 16.4307 6.77065 15.6454C8.47742 14.8602 10.3553 14.6546 12.1672 15.0545C13.9791 15.4544 15.6437 16.442 16.9508 17.8925" stroke="black" stroke-width="2" stroke-linecap="round" stroke-linejoin="round"/>
</svg>
