<svg width="63" height="78" viewBox="0 0 63 78" fill="none" xmlns="http://www.w3.org/2000/svg">
<path d="M61.2 25.1252V61.2002C61.2 72.3002 54.577 76.0002 46.4 76.0002H16.8C8.623 76.0002 2 72.3002 2 61.2002V25.1252C2 13.1002 8.623 10.3252 16.8 10.3252C16.8 12.6192 17.7249 14.6912 19.2419 16.2082C20.7589 17.7252 22.831 18.6502 25.125 18.6502H38.075C42.663 18.6502 46.4 14.9132 46.4 10.3252C54.577 10.3252 61.2 13.1002 61.2 25.1252Z" stroke="white" stroke-width="3.10057" stroke-linecap="round" stroke-linejoin="round"/>
<path d="M46.4 10.325C46.4 14.913 42.663 18.65 38.075 18.65H25.125C22.831 18.65 20.7589 17.725 19.2419 16.208C17.7249 14.691 16.8 12.619 16.8 10.325C16.8 5.737 20.537 2 25.125 2H38.075C40.369 2 42.441 2.925 43.958 4.442C45.475 5.959 46.4 8.031 46.4 10.325Z" stroke="white" stroke-width="3.10057" stroke-linecap="round" stroke-linejoin="round"/>
<path d="M16.8 42.6997H31.6" stroke="white" stroke-width="3.10057" stroke-linecap="round" stroke-linejoin="round"/>
<path d="M16.8 57.5005H46.4" stroke="white" stroke-width="3.10057" stroke-linecap="round" stroke-linejoin="round"/>
</svg>
