<svg width="74" height="74" viewBox="0 0 74 74" fill="none" xmlns="http://www.w3.org/2000/svg">
<path d="M72 9.5271V54.7816C72 58.381 69.27 61.755 65.91 62.2049L64.755 62.3553C57.125 63.4426 45.365 67.6039 38.645 71.5782C37.735 72.1406 36.23 72.1406 35.285 71.5782L35.145 71.5036C28.4249 67.5668 16.7001 63.4426 9.1051 62.3553L8.08996 62.2049C4.72997 61.755 2 58.381 2 54.7816V9.48957C2 5.02788 5.39489 1.65353 9.55989 2.02846C16.9099 2.66585 28.0399 6.64024 34.27 10.802L35.145 11.3642C36.16 12.0391 37.84 12.0391 38.855 11.3642L39.45 10.9519C41.655 9.48965 44.455 8.02737 47.5 6.71511V22.0124L54.5 17.0257L61.5 22.0124V2.44107C62.445 2.25361 63.355 2.14098 64.195 2.06599H64.405C68.57 1.69106 72 5.02792 72 9.5271Z" stroke="white" stroke-width="2.90782" stroke-linecap="round" stroke-linejoin="round"/>
<path d="M37 12.6016V68.8414" stroke="white" stroke-width="2.90782" stroke-linecap="round" stroke-linejoin="round"/>
<path d="M61.5 2.44092V22.0123L54.5 17.0256L47.5 22.0123V6.71496C52.085 4.76531 57.195 3.19078 61.5 2.44092Z" stroke="white" stroke-width="2.90782" stroke-linecap="round" stroke-linejoin="round"/>
</svg>
