<svg width="70" height="70" viewBox="0 0 70 70" fill="none" xmlns="http://www.w3.org/2000/svg">
<path d="M31.0357 45.3106C30.3847 45.3106 29.7662 45.0502 29.3105 44.5945L21.4334 36.7173C20.4895 35.7733 20.4895 34.2109 21.4334 33.2669C22.3774 32.3229 23.9398 32.3229 24.8838 33.2669L31.0357 39.419L45.0324 25.4223C45.9764 24.4784 47.5388 24.4784 48.4827 25.4223C49.4267 26.3663 49.4267 27.9287 48.4827 28.8726L32.7609 44.5945C32.3051 45.0502 31.6867 45.3106 31.0357 45.3106Z" fill="white"/>
<path d="M34.9757 69.9836C32.925 69.9836 30.8743 69.3 29.2793 67.9329L24.1362 63.5061C23.6154 63.0503 22.3134 62.5946 21.6298 62.5946H16.0311C11.2137 62.5946 7.30759 58.6886 7.30759 53.8711V48.305C7.30759 47.6214 6.85188 46.3519 6.39618 45.8311L2.00186 40.6556C-0.667285 37.4982 -0.667285 32.518 2.00186 29.3606L6.39618 24.185C6.85188 23.6642 7.30759 22.3948 7.30759 21.7112V16.1125C7.30759 11.295 11.2137 7.38897 16.0311 7.38897H21.6624C22.3459 7.38897 23.6479 6.90071 24.1688 6.47755L29.3119 2.05068C32.5018 -0.683561 37.482 -0.683561 40.672 2.05068L45.815 6.47755C46.3358 6.93326 47.6378 7.38897 48.3214 7.38897H53.855C58.6724 7.38897 62.5785 11.295 62.5785 16.1125V21.6461C62.5785 22.3297 63.0668 23.6317 63.5225 24.1525L67.9493 29.2955C70.6836 32.4854 70.6836 37.4656 67.9493 40.6556L63.5225 45.7986C63.0668 46.3194 62.5785 47.6214 62.5785 48.305V53.8386C62.5785 58.656 58.6724 62.5621 53.855 62.5621H48.3214C47.6378 62.5621 46.3358 63.0503 45.815 63.4735L40.672 67.9004C39.077 69.3 37.0263 69.9836 34.9757 69.9836ZM16.0311 12.2715C13.9153 12.2715 12.1902 13.9967 12.1902 16.1125V21.6786C12.1902 23.534 11.3113 25.9102 10.1069 27.3099L5.71261 32.4854C4.57335 33.82 4.57335 36.1311 5.71261 37.4656L10.1069 42.6412C11.3113 44.0734 12.1902 46.417 12.1902 48.2724V53.8386C12.1902 55.9543 13.9153 57.6795 16.0311 57.6795H21.6624C23.5503 57.6795 25.9265 58.5584 27.3587 59.7953L32.5018 64.2222C33.8364 65.3614 36.18 65.3614 37.5146 64.2222L42.6576 59.7953C44.0898 58.5909 46.466 57.6795 48.3539 57.6795H53.8875C56.0033 57.6795 57.7285 55.9543 57.7285 53.8386V48.305C57.7285 46.417 58.6073 44.0408 59.8442 42.6086L64.2711 37.4656C65.4104 36.1311 65.4104 33.7874 64.2711 32.4529L59.8442 27.3099C58.6073 25.8777 57.7285 23.5015 57.7285 21.6135V16.1125C57.7285 13.9967 56.0033 12.2715 53.8875 12.2715H48.3539C46.466 12.2715 44.0898 11.3927 42.6576 10.1558L37.5146 5.72889C36.18 4.58962 33.8364 4.58962 32.5018 5.72889L27.3587 10.1883C25.9265 11.3927 23.5177 12.2715 21.6624 12.2715H16.0311Z" fill="white"/>
</svg>
