<svg width="70" height="70" viewBox="0 0 70 70" fill="none" xmlns="http://www.w3.org/2000/svg">
<path d="M53.8512 70H16.1488C7.22791 70 0 62.7316 0 53.8009V29.649C0 25.2162 2.73488 19.6427 6.25116 16.9048L23.8 3.21547C29.0744 -0.891315 37.507 -1.08688 42.9767 2.75916L63.0977 16.8722C66.9721 19.5775 70 25.3792 70 30.1053V53.8335C70 62.7316 62.7721 70 53.8512 70ZM26.7953 7.06153L9.24651 20.7509C6.93488 22.5761 4.88372 26.7155 4.88372 29.649V53.8009C4.88372 60.0263 9.93023 65.1109 16.1488 65.1109H53.8512C60.0698 65.1109 65.1163 60.0589 65.1163 53.8335V30.1053C65.1163 26.9763 62.8698 22.6413 60.2977 20.8812L40.1767 6.76818C36.4651 4.16069 30.3442 4.29107 26.7953 7.06153Z" fill="white"/>
<path d="M35 56.9626C33.6651 56.9626 32.5581 55.8544 32.5581 54.518V44.7399C32.5581 43.4036 33.6651 42.2954 35 42.2954C36.3349 42.2954 37.4418 43.4036 37.4418 44.7399V54.518C37.4418 55.8544 36.3349 56.9626 35 56.9626Z" fill="white"/>
</svg>
